<svg xmlns="http://www.w3.org/2000/svg" width="48" viewBox="0 0 48 48" height="48" version="1.0"><defs><clipPath id="a"><path d="M 2.898438 2.089844 L 44.777344 2.089844 L 44.777344 44.699219 L 2.898438 44.699219 Z M 2.898438 2.089844"/></clipPath></defs><g clip-path="url(#a)"><path fill="#231F20" d="M 37.773438 7.773438 C 37.714844 7.679688 37.613281 7.550781 37.472656 7.402344 C 37.222656 7.105469 36.824219 6.839844 36.492188 6.613281 C 35.683594 6.046875 34.808594 5.5625 33.917969 4.96875 C 33.707031 4.855469 33.453125 4.730469 33.222656 4.621094 C 33.113281 4.570312 32.96875 4.523438 32.914062 4.515625 C 32.832031 4.503906 32.941406 4.574219 33.140625 4.671875 C 33.375 4.789062 33.605469 4.90625 33.851562 5.027344 C 34.605469 5.480469 35.363281 5.882812 35.992188 6.433594 C 36.367188 6.75 36.808594 7.058594 37.222656 7.382812 C 37.484375 7.605469 37.832031 7.859375 37.773438 7.773438 Z M 31.867188 3.859375 L 31.691406 3.796875 L 31.835938 3.863281 Z M 28.394531 3 C 28.386719 2.992188 28.40625 2.988281 28.375 2.972656 C 28.210938 2.898438 27.785156 2.863281 27.824219 2.886719 C 27.835938 2.898438 27.917969 2.921875 27.96875 2.929688 C 28.113281 2.953125 28.253906 2.964844 28.394531 3 Z M 25.296875 2.449219 C 25.277344 2.4375 25.277344 2.421875 25.230469 2.414062 C 24.746094 2.320312 24.039062 2.238281 23.390625 2.328125 C 23.105469 2.359375 22.976562 2.425781 23.167969 2.449219 C 23.402344 2.476562 23.800781 2.464844 24.195312 2.46875 C 24.59375 2.488281 24.988281 2.492188 25.214844 2.472656 C 25.265625 2.464844 25.269531 2.457031 25.296875 2.449219 Z M 19.71875 2.671875 C 19.820312 2.625 19.691406 2.636719 19.488281 2.683594 C 19.28125 2.734375 19.152344 2.777344 19.148438 2.804688 C 19.148438 2.8125 19.234375 2.804688 19.273438 2.796875 C 19.429688 2.753906 19.652344 2.699219 19.71875 2.671875 Z M 10.140625 36.386719 C 10.140625 36.390625 10.214844 36.484375 10.261719 36.539062 C 10.472656 36.804688 10.734375 37.023438 10.980469 37.265625 C 10.839844 37.074219 10.617188 36.882812 10.375 36.605469 C 10.238281 36.449219 10.148438 36.363281 10.140625 36.386719 Z M 11.402344 37.644531 L 11.152344 37.429688 C 11.246094 37.515625 11.339844 37.609375 11.429688 37.695312 C 11.605469 37.867188 11.65625 37.90625 11.566406 37.800781 C 11.542969 37.769531 11.457031 37.695312 11.402344 37.644531 Z M 13.820312 40.160156 L 13.917969 40.230469 L 13.960938 40.238281 Z M 17.703125 40.535156 C 17.722656 40.566406 17.691406 40.582031 17.773438 40.625 C 18.035156 40.753906 18.308594 40.90625 18.636719 41.03125 C 19.226562 41.214844 19.851562 41.429688 20.503906 41.574219 C 21.164062 41.679688 21.828125 41.84375 22.496094 41.894531 C 22.570312 41.902344 22.695312 41.886719 22.769531 41.875 C 22.785156 41.871094 22.714844 41.851562 22.65625 41.84375 C 21.96875 41.792969 21.300781 41.578125 20.628906 41.453125 C 19.960938 41.296875 19.316406 41.042969 18.664062 40.847656 C 18.472656 40.777344 18.226562 40.6875 18.011719 40.609375 C 17.902344 40.570312 17.808594 40.558594 17.703125 40.535156 Z M 19.734375 42.675781 C 19.722656 42.667969 19.585938 42.632812 19.515625 42.617188 C 19.488281 42.609375 19.496094 42.628906 19.488281 42.632812 C 19.710938 42.703125 19.804688 42.71875 19.734375 42.675781 Z M 23.898438 43.570312 C 23.933594 43.589844 24.097656 43.628906 24.222656 43.621094 C 24.917969 43.589844 25.617188 43.578125 26.3125 43.519531 C 26.9375 43.429688 27.503906 43.320312 28.007812 43.199219 C 28.109375 43.195312 28.214844 43.199219 28.308594 43.1875 C 28.730469 43.144531 29.179688 43.035156 29.667969 42.875 C 30.1875 42.722656 30.640625 42.480469 31.160156 42.265625 C 31.472656 42.140625 31.792969 42.011719 32.097656 41.890625 C 32.398438 41.75 32.6875 41.628906 32.957031 41.542969 C 33.011719 41.527344 33.089844 41.5 33.144531 41.472656 C 33.285156 41.402344 33.519531 41.285156 33.542969 41.265625 C 33.71875 41.105469 34.027344 40.859375 34.640625 40.484375 C 35.089844 40.214844 35.535156 39.9375 35.933594 39.605469 C 36.023438 39.535156 36.085938 39.464844 36.160156 39.394531 C 36.109375 39.421875 36.066406 39.441406 36.007812 39.484375 C 35.316406 40 34.507812 40.390625 33.742188 40.847656 C 33.34375 41.046875 32.933594 41.222656 32.527344 41.410156 C 32.128906 41.601562 31.71875 41.765625 31.296875 41.890625 C 30.914062 42.015625 30.476562 42.179688 30.089844 42.332031 C 29.027344 42.648438 27.949219 42.945312 26.824219 43.074219 C 26.46875 43.121094 26.167969 43.199219 26.050781 43.246094 C 25.914062 43.308594 25.5625 43.359375 25.148438 43.402344 C 24.753906 43.4375 24.285156 43.472656 24.015625 43.519531 C 23.925781 43.53125 23.863281 43.554688 23.898438 43.570312 Z M 27.339844 41.816406 C 27.304688 41.824219 27.332031 41.839844 27.378906 41.839844 C 27.71875 41.847656 28.105469 41.808594 28.601562 41.695312 C 29.097656 41.589844 29.726562 41.5 30.492188 41.210938 C 30.535156 41.1875 30.605469 41.15625 30.613281 41.140625 C 30.625 41.128906 30.601562 41.117188 30.558594 41.132812 C 30.085938 41.277344 29.613281 41.410156 29.121094 41.484375 C 28.636719 41.566406 28.15625 41.691406 27.664062 41.734375 C 27.601562 41.742188 27.429688 41.789062 27.339844 41.816406 Z M 39.804688 33.492188 C 39.808594 33.535156 39.84375 33.507812 39.929688 33.378906 C 39.925781 33.347656 39.9375 33.289062 39.910156 33.296875 C 39.871094 33.308594 39.808594 33.355469 39.757812 33.390625 C 39.777344 33.421875 39.796875 33.445312 39.804688 33.492188 Z M 43.9375 22.777344 C 43.921875 22.625 43.90625 22.476562 43.890625 22.316406 C 43.84375 21.863281 43.828125 21.40625 43.761719 20.957031 C 43.679688 20.507812 43.597656 20.0625 43.515625 19.609375 C 43.457031 19.191406 43.335938 18.828125 43.214844 18.480469 C 42.433594 16.125 41.191406 13.675781 39.394531 11.460938 C 39.050781 10.996094 38.695312 10.636719 38.351562 10.328125 C 38.007812 10.019531 37.714844 9.726562 37.375 9.507812 C 36.960938 9.242188 36.574219 8.894531 36.046875 8.398438 C 35.636719 8.054688 35.59375 8.03125 35.304688 7.914062 C 35.152344 7.851562 34.980469 7.761719 34.703125 7.558594 C 33.992188 7.128906 33.355469 6.742188 32.75 6.523438 C 32.550781 6.457031 32.195312 6.285156 31.910156 6.152344 C 31.410156 5.886719 30.875 5.710938 30.34375 5.515625 C 29.882812 5.335938 29.464844 5.214844 29.167969 5.222656 C 28.742188 5.222656 27.898438 4.984375 27.46875 5.046875 C 27.253906 5.066406 27.128906 5.085938 27.25 5.160156 C 27.371094 5.234375 27.160156 5.25 26.96875 5.269531 C 26.746094 5.292969 26.605469 5.285156 26.261719 5.222656 C 25.886719 5.140625 25.503906 5.144531 25.121094 5.109375 C 24.671875 5.082031 24.253906 5.128906 24.34375 5.195312 C 24.414062 5.253906 24.464844 5.308594 24.574219 5.363281 C 24.640625 5.394531 24.769531 5.433594 24.941406 5.460938 C 25.371094 5.535156 25.84375 5.550781 26.28125 5.683594 C 26.5 5.738281 26.46875 5.808594 26.230469 5.789062 C 25.765625 5.726562 25.289062 5.792969 24.804688 5.777344 C 24.550781 5.777344 24.316406 5.78125 24.097656 5.785156 C 23.882812 5.816406 23.6875 5.851562 23.519531 5.890625 C 22.570312 6.089844 21.230469 6.265625 19.914062 6.667969 C 18.390625 7.070312 16.941406 7.746094 15.601562 8.570312 C 14.167969 9.417969 12.886719 10.503906 11.722656 11.699219 C 11.480469 11.964844 11.21875 12.214844 10.992188 12.496094 L 10.328125 13.355469 C 9.953125 13.800781 9.699219 14.328125 9.367188 14.796875 C 9.101562 15.183594 8.929688 15.621094 8.699219 16.027344 C 8.464844 16.433594 8.300781 16.871094 8.132812 17.308594 C 7.496094 18.925781 7.085938 20.644531 7.046875 22.4375 C 6.976562 23.167969 7.042969 23.90625 7.050781 24.636719 C 7.195312 26.539062 7.597656 28.378906 8.289062 30.140625 C 8.9375 31.832031 9.910156 33.378906 11.058594 34.789062 L 11.742188 35.589844 L 12.5 36.320312 C 12.988281 36.839844 13.585938 37.222656 14.125 37.683594 C 14.675781 38.0625 15.25 38.429688 15.824219 38.777344 C 16.246094 39 16.65625 39.21875 17.070312 39.4375 C 17.492188 39.644531 17.933594 39.804688 18.390625 39.992188 L 17.535156 39.695312 C 16.472656 39.265625 15.449219 38.730469 14.488281 38.101562 C 14.230469 37.957031 13.980469 37.757812 13.78125 37.578125 C 13.28125 37.15625 12.75 36.761719 12.238281 36.28125 C 11.523438 35.707031 10.949219 35.007812 10.382812 34.308594 C 10.171875 33.992188 9.902344 33.640625 9.648438 33.304688 C 9.746094 33.519531 9.886719 33.777344 10.144531 34.144531 C 10.230469 34.265625 10.308594 34.394531 10.40625 34.511719 C 11.449219 35.726562 12.578125 36.863281 13.839844 37.800781 C 14.214844 38.089844 14.625 38.289062 14.996094 38.546875 L 15.558594 38.917969 L 16.160156 39.226562 C 16.5 39.394531 16.832031 39.59375 17.167969 39.738281 C 17.730469 39.933594 18.265625 40.144531 18.789062 40.347656 C 19.328125 40.507812 19.851562 40.667969 20.371094 40.824219 C 20.886719 40.949219 21.4375 41.039062 21.929688 41.101562 C 22.714844 41.164062 23.453125 41.203125 24.210938 41.238281 C 27.304688 41.195312 30.402344 40.476562 33.101562 38.960938 C 34.820312 38.050781 36.324219 36.863281 37.65625 35.53125 C 38.394531 34.839844 38.910156 34.167969 39.417969 33.699219 C 39.5625 33.566406 39.640625 33.496094 39.75 33.394531 L 39.742188 33.398438 C 39.820312 33.292969 39.902344 33.1875 39.976562 33.082031 C 40.300781 32.65625 40.527344 32.351562 40.699219 32.121094 C 40.851562 31.878906 40.957031 31.714844 41.046875 31.574219 C 41.230469 31.289062 41.382812 31.117188 41.789062 30.597656 C 42.011719 30.257812 42.261719 29.832031 42.511719 29.398438 C 42.703125 29.09375 42.828125 28.667969 42.828125 28.296875 C 42.824219 28.222656 42.824219 28.15625 42.824219 28.085938 C 42.851562 27.949219 42.878906 27.8125 42.910156 27.671875 C 43.085938 27.003906 43.136719 26.609375 43.222656 26.53125 C 43.324219 26.4375 43.433594 26.21875 43.570312 25.792969 C 43.679688 25.457031 43.769531 25.078125 43.78125 24.515625 C 43.800781 24.125 43.847656 23.910156 43.894531 23.796875 C 44.183594 23.097656 44.242188 23.054688 44.515625 23.234375 C 44.59375 23.28125 44.648438 23.546875 44.679688 23.96875 C 44.707031 24.460938 44.777344 25 44.734375 25.578125 C 44.695312 26.160156 44.65625 26.792969 44.558594 27.472656 C 44.40625 28.175781 44.28125 28.898438 44.074219 29.613281 C 43.824219 30.3125 43.625 31.058594 43.273438 31.765625 C 43.007812 32.296875 42.78125 32.832031 42.511719 33.34375 C 42.226562 33.84375 41.945312 34.339844 41.660156 34.839844 C 40.714844 36.296875 39.621094 37.742188 38.308594 38.941406 C 38.066406 39.171875 37.824219 39.410156 37.570312 39.632812 L 36.765625 40.261719 C 36.496094 40.464844 36.226562 40.679688 35.945312 40.878906 L 35.0625 41.421875 C 33.265625 42.523438 31.296875 43.378906 29.253906 43.886719 C 26.671875 44.566406 23.960938 44.703125 21.316406 44.363281 C 19.855469 44.167969 18.410156 43.835938 17.023438 43.332031 C 15.886719 42.953125 14.8125 42.417969 13.757812 41.855469 C 13.445312 41.664062 13.128906 41.46875 12.824219 41.277344 L 12.171875 40.886719 L 11.570312 40.4375 C 11.175781 40.128906 10.765625 39.839844 10.398438 39.503906 C 10.011719 39.144531 9.589844 38.757812 9.1875 38.386719 C 7.632812 36.820312 6.3125 35.023438 5.316406 33.082031 C 5.199219 32.835938 5.082031 32.585938 4.964844 32.339844 C 3.570312 29.4375 2.894531 26.234375 2.933594 23.046875 C 2.964844 20.671875 3.394531 18.304688 4.1875 16.066406 C 4.527344 15.023438 5.03125 14.046875 5.511719 13.066406 C 7.382812 9.722656 10.101562 6.847656 13.421875 4.953125 C 16.007812 3.445312 18.917969 2.480469 21.894531 2.179688 C 22.613281 2.136719 23.332031 2.121094 24.046875 2.09375 C 26.113281 2.164062 28.171875 2.457031 30.148438 3.074219 C 32.109375 3.722656 33.984375 4.621094 35.707031 5.773438 C 36.484375 6.367188 37.320312 6.949219 37.949219 7.625 C 39.484375 9.097656 40.839844 10.824219 41.863281 12.742188 C 43.34375 15.429688 44.0625 18.273438 44.171875 20.984375 C 44.183594 21.75 44.148438 22.488281 44.089844 23.027344 C 44.0625 23.261719 43.972656 23.125 43.9375 22.777344"/></g><path fill="#231F20" d="M 42.820312 28.121094 L 42.824219 28.085938 L 42.824219 28.066406 Z M 42.820312 28.121094"/><path fill="#231F20" d="M 42.820312 28.121094 L 42.824219 28.066406 L 42.804688 28.121094 Z M 42.820312 28.121094"/><path fill="#231F20" d="M 42.5625 28.523438 C 42.546875 28.578125 42.523438 28.699219 42.527344 28.722656 C 42.53125 28.777344 42.539062 28.867188 42.5625 28.808594 C 42.632812 28.605469 42.722656 28.355469 42.804688 28.121094 C 42.765625 28.121094 42.730469 28.105469 42.683594 28.148438 C 42.667969 28.164062 42.601562 28.386719 42.5625 28.523438"/><path fill="#231F20" d="M 28.101562 43.183594 C 28.0625 43.1875 28.019531 43.191406 27.976562 43.199219 L 27.972656 43.199219 L 28.007812 43.199219 L 28.019531 43.195312 L 28.101562 43.183594"/><path fill="#231F20" d="M 28.378906 43.117188 C 28.289062 43.140625 28.199219 43.171875 28.101562 43.183594 L 28.199219 43.167969 L 28.378906 43.117188"/><g fill="#222"><g><g><path d="M 6.53125 -21.75 L 6.53125 0 L 1.578125 0 L 1.578125 -21.75 Z M 6.53125 -21.75" transform="translate(12.732 34.64)"/></g></g></g><g fill="#222"><g><g><path d="M 0.203125 -17.390625 L 0.203125 -21.75 L 15.5 -21.75 L 15.5 -17.390625 L 10.328125 -17.390625 L 10.328125 0 L 5.375 0 L 5.375 -17.390625 Z M 0.203125 -17.390625" transform="translate(23.249 34.64)"/></g></g></g></svg>